<svg width="803" height="271" viewBox="0 0 803 271" fill="none" xmlns="http://www.w3.org/2000/svg">
<path d="M369.803 126.68L370.972 126.214L371.563 126.683C372.775 127.066 373.097 126.925 373.686 127.809C372.882 128.291 372.768 128.219 371.783 128.126C371.334 127.885 370.267 127.03 369.803 126.68Z" fill="#F3F3F7" fill-opacity="0.0117647"/>
<path d="M478.054 125.808L478.184 124.449L479.091 123.726L479.179 123.896L479.68 123.161C479.405 123.945 479.447 125.017 480.009 125.679C481.025 126.956 480.647 126.576 482.591 126.939C481.927 127.125 480.723 127.42 480.138 127.678C479.712 127.39 478.501 126.22 478.054 125.808Z" fill="#F3F3F7" fill-opacity="0.0117647"/>
<path d="M502.635 91.9281C502.717 91.9229 502.799 91.9176 502.881 91.9124C511.72 93.2033 537.928 86.9425 539.461 100.393C540.577 110.195 539.48 123.376 539.939 133.731C540.344 133.827 540.748 133.928 541.151 134.034C548.028 135.85 546.925 140.898 547.197 146.922C547.405 151.52 543.566 159.369 537.861 157.382C533.881 155.996 533.446 152.988 531.761 149.592C530.815 148.819 529.043 148.977 527.695 148.94C517.796 148.731 507.894 148.66 497.993 148.728C496.254 154.157 492.681 160.14 485.988 155.822C481.247 152.764 480.387 140.686 483.753 136.45C485.588 134.14 487.715 133.933 490.505 133.571C492.406 128.257 492.549 124.982 492.729 119.355C493.041 109.6 490.263 95.0372 502.635 91.9281ZM523.885 134.193C525.328 133.434 525.207 132.399 525.267 130.802C525.572 122.577 525.287 114.318 525.425 106.088C519.515 106.084 513.606 106.021 507.698 105.9C507.704 117.163 507.752 123.072 505.306 134.245C511.395 134.237 517.825 134.335 523.885 134.193Z" fill="#080808"/>
<path d="M329.964 91.0928C341.805 90.7603 357.462 93.8198 360.412 107.679C361.37 114.163 361.221 120.651 360.971 127.347C360.775 132.583 362.458 146.572 357.834 150.091C353.53 153.367 348.991 150.261 345.991 146.631C343.373 148.536 341.978 149.421 338.959 150.568C338.297 150.713 337.632 150.843 336.965 150.96C329.646 152.218 322.127 150.516 316.063 146.227C295.168 131.249 302.445 95.4671 329.964 91.0928ZM323.232 132.511C323.734 132.889 324.889 133.815 325.375 134.076C339.159 144.087 351.888 123.27 343.865 111.189C339.903 105.224 330.114 104.448 324.85 108.367C316.154 114.842 317.515 124.571 323.232 132.511Z" fill="#080808"/>
<path d="M448.243 91.0834C467.759 89.5341 479.431 104.293 478.816 122.401C478.711 125.485 478.981 128.877 478.893 132.027C478.688 139.355 480.948 153.097 469.266 151.355C466.652 150.956 464.864 148.671 463.558 146.607C461.021 148.686 459.794 149.306 456.926 150.639C455.664 150.927 454.39 151.161 453.107 151.338C446.335 152.292 439.474 150.013 434.086 145.938C427.666 141.142 423.443 133.966 422.367 126.024C419.978 107.853 429.646 93.4832 448.243 91.0834ZM440.371 131.567C440.855 132.013 442.165 133.279 442.627 133.591C455.944 144.061 470.323 124.78 461.899 111.815C457.172 104.538 449.062 104.185 442.265 108.87C434.425 114.275 435.479 124.418 440.371 131.567Z" fill="#080808"/>
<path d="M667.93 91.8768C676.44 91.6429 679.63 98.4369 679.135 105.767C678.725 111.847 680.816 146.34 677.193 149.057C660.311 161.72 663.725 126.873 663.982 119.19C658.563 127.437 656.58 137.344 645.423 138.072C637.113 134.931 632.417 125.881 628.008 118.612C628.193 122.582 628.309 126.556 628.357 130.531C628.413 136.729 629.635 145.807 624.665 150.222C621.55 152.989 615.118 150.72 614.587 148.545C612.289 139.13 612.097 106.01 613.917 98.2473C614.376 96.3013 615.587 94.6161 617.285 93.5609C628.824 86.466 641.708 112.21 646.26 119.797C651.258 110.654 658.441 96.0184 667.93 91.8768Z" fill="#080808"/>
<path d="M576.762 91.1103C577.318 91.0794 577.876 91.0549 578.433 91.0356C585.651 90.7941 591.705 93.0242 597.138 98.0139C603.155 103.54 609.737 116.464 602.969 123.562C598.579 128.166 589.74 127.277 583.79 127.283C577.885 127.288 571.79 127.241 565.818 127.227C570.896 136.269 577.115 139.892 587.014 135.219C592.624 132.571 595.879 129.708 601.462 133.923C611.731 149.324 575.904 158.438 561.967 145.65C541.767 127.112 548.559 94.1832 576.762 91.1103ZM581.16 113.903C583.885 113.887 588.806 114 591.353 113.736C587.282 107.875 584.399 105.424 576.738 105.888C571.384 107.178 569.075 108.747 566.074 113.622L565.878 113.944L581.16 113.903Z" fill="#080808"/>
<path d="M779.443 91.1197C784.64 90.7598 795.642 92.1656 799.871 95.7057C801.224 96.8403 801.918 101.738 801.942 103.798C802.041 116.929 802.741 130.627 801.761 143.684C801.288 150.029 795.152 155.792 789.704 149.762C785.813 145.446 786.781 138.563 786.88 133.22C778.323 133.172 775.401 133.356 772.117 141.793C770.53 145.7 768.675 148.644 765.134 151.086C758.648 155.556 750.417 151.803 752.739 143.341C754.652 136.373 759.773 132.526 765.618 128.973C754.652 122.175 748.725 111.582 758.146 99.7301C763.151 93.4273 771.702 91.6318 779.443 91.1197ZM779.338 118.959L786.857 118.952C786.88 114.812 786.857 110.598 786.921 106.467C783.824 106.14 780.691 105.707 777.588 105.911C765.589 108.471 768.803 119.161 779.338 118.959Z" fill="#080808"/>
<path d="M693.205 91.8202C698.694 91.5461 700.21 92.536 703.168 97.1745C703.879 105.339 703.395 118.828 703.319 127.309C710.938 116.539 719.396 105.571 727.708 95.291C729.756 92.9256 731.15 92.3598 734.148 92.2064C747.004 91.5478 744.362 109 744.362 117.488L744.298 146.503C742.822 148.661 742.39 149.337 740.296 151.044C724.996 155.557 728.571 127.143 729.219 118.391C725.707 122.98 722.19 126.905 718.002 131.964C712.997 138.008 698.612 161.484 689.701 147.632C688.948 146.142 688.078 143.614 688.076 141.961C688.052 127.105 687.274 111.878 688.359 97.0964C688.542 94.5986 691.301 93.0172 693.205 91.8202Z" fill="#080808"/>
<path d="M410.663 91.0129C424.91 90.8367 414.445 108.326 410.138 113.643C407.201 117.269 405.237 119.315 401.583 122.226C406.903 126.296 430.218 146.508 414.728 152.312C412.318 153.062 409.993 151.444 408.145 150.822C401.397 148.549 392.911 127.019 384.717 129.095C383.14 130.894 383.744 139.325 383.782 142.129C383.613 143.674 383.494 145.375 382.905 146.823C382.11 148.779 380.608 150.519 378.612 151.307C377.017 151.937 375.141 151.911 373.578 151.199C371.456 150.233 370.051 148.398 369.277 146.239C367.692 141.826 368.157 107.012 368.702 100.736C368.86 98.9145 369.122 96.8221 369.966 95.1801C370.753 93.6483 372.383 92.5686 374.003 92.0973C376.009 91.5134 378.314 91.7041 380.124 92.7815C385.833 96.1811 382.497 106.701 383.933 112.007C384.276 113.273 384.721 114.007 385.897 114.678C393.386 116.216 396.27 105.323 398.684 100.461C401.294 95.204 405.146 92.7243 410.663 91.0129Z" fill="#080808"/>
<path d="M637.803 170.172C650.351 169.109 660.737 170.853 673.478 169.983C687.083 169.053 692.869 176.367 692.042 188.927C691.817 192.351 692.057 197.617 692.052 201.306L692.037 235.187C692.718 235.532 693.395 235.895 694.056 236.275C696.781 237.85 699.015 240.856 699.731 244.805C701.745 255.897 699.631 276.437 683.074 269.262C679.236 267.599 678.636 261.362 677.856 257.441L677.134 257.219C662.1 256.816 649.607 257.164 634.427 257.128C634.011 265.485 630.183 273.279 619.452 269.68C611.784 265.873 612.559 253.851 613.062 247.027C613.613 239.556 615.719 237.608 621.95 235.398C621.482 226.559 621.992 216.109 621.799 207.034C621.979 199.044 621.321 190.92 622.129 182.97C623.129 173.118 628.863 171.109 637.803 170.172ZM644.341 235.924L660.422 235.945C661.652 235.95 669.114 236.012 670.041 235.811C670 221.076 669.695 204.679 670.168 190.049L644.295 190.068L644.341 235.924Z" fill="#080808"/>
<path d="M371.085 168.783L401.788 168.704C409.43 168.656 424.18 167.298 430.067 172.347C433.279 175.059 435.274 178.942 435.608 183.133C435.714 184.633 435.717 186.161 435.721 187.666C435.773 206.092 436.144 224.546 435.593 242.966C435.518 245.437 435.434 248.244 435.028 250.617C434.051 255.825 429.115 259.205 423.978 259.385C409.216 259.9 412.032 239.717 412.061 229.925L412.044 198.232C411.947 195.617 411.983 192.697 411.956 190.053L379.796 190.099L379.816 228.082C379.827 235.582 380.062 243.241 379.341 250.697C378.911 255.153 373.922 258.798 369.731 259.401C366.58 259.863 363.377 259.013 360.869 257.05C354.756 252.326 356.255 242.445 356.24 235.271L356.202 212.551C356.182 202.585 355.667 192.31 356.365 182.412C356.991 173.543 362.929 169.629 371.085 168.783Z" fill="#080808"/>
<path d="M481.379 168.054C499.356 166.772 518.339 180.63 522.147 198.793C524.081 208.022 523.004 219.839 523.424 229.383C523.709 235.879 523.353 243.311 522.768 249.752C521.536 261.146 505.865 262.6 501.658 252.883C499.952 248.942 500.424 242.966 500.473 238.696L500.561 219.178C500.59 205.102 501.752 193.329 484.581 189.675C466.187 189.387 464.417 203.137 465.061 217.774C465.102 225.877 465.111 233.967 465.051 242.073C465.018 246.52 464.794 252.611 461.748 256.138C458.058 260.411 450.928 260.511 446.795 256.726C443.702 253.893 442.61 251.066 442.324 246.908C442.009 240.46 442.416 234.084 442.273 227.637C442.374 210.91 439.887 195.65 451.851 182.072C460.092 172.72 469.155 169.031 481.379 168.054Z" fill="#080808"/>
<path d="M529.336 199.33C529.541 191.31 527.737 178.997 533.368 172.804C537.306 168.472 545.064 169.183 548.916 173.57C557.776 185.478 541.519 209.046 566.509 207.731C573.616 207.357 577.812 208.72 583.332 202.146C583.097 207.037 577.849 210.869 578.059 215.251C578.269 219.625 582.523 221.847 582.708 227.171C578.236 222.427 573.75 222.407 567.662 222.479C561.944 222.546 558.8 222.358 553.997 225.849C547.868 237.248 557.416 253.445 543.407 258.981C541.34 259.798 536.688 259.314 534.712 258.184C529.783 255.366 529.523 249.131 529.294 244.042C530.081 231.256 529.511 212.392 529.336 199.33Z" fill="#080808"/>
<path d="M583.332 202.146C586.166 193.799 581.119 174.989 590.812 171.022C600.286 167.145 606.771 173.486 606.732 183.453C606.648 205.444 607.365 227.985 606.444 249.991C606.279 253.941 604.221 257.05 600.571 258.681C597.749 259.942 594.543 260.037 591.651 258.945C579.554 254.291 587.615 236.462 582.708 227.171C582.523 221.847 578.269 219.625 578.059 215.251C577.849 210.87 583.097 207.037 583.332 202.146Z" fill="#080808"/>
<mask id="path-16-inside-1_241_60" fill="white">
<path d="M706.414 199.33C706.619 191.31 704.815 178.997 710.445 172.804C714.384 168.472 722.142 169.183 725.993 173.57C734.854 185.478 717.407 214.629 740.704 209.687C763.415 204.87 772.362 224.139 767.544 225.516C762.727 226.892 756.533 225.849 751.027 228.269C745.522 230.688 746.21 217.946 731.075 225.849C721.357 230.924 734.494 253.445 720.485 258.981C718.418 259.798 713.766 259.314 711.789 258.184C706.861 255.366 706.601 249.131 706.372 244.042C707.158 231.256 706.589 212.392 706.414 199.33Z"/>
</mask>
<path d="M706.414 199.33C706.619 191.31 704.815 178.997 710.445 172.804C714.384 168.472 722.142 169.183 725.993 173.57C734.854 185.478 717.407 214.629 740.704 209.687C763.415 204.87 772.362 224.139 767.544 225.516C762.727 226.892 756.533 225.849 751.027 228.269C745.522 230.688 746.21 217.946 731.075 225.849C721.357 230.924 734.494 253.445 720.485 258.981C718.418 259.798 713.766 259.314 711.789 258.184C706.861 255.366 706.601 249.131 706.372 244.042C707.158 231.256 706.589 212.392 706.414 199.33Z" fill="#080808"/>
<path d="M705.762 199.314C706.197 199.325 706.631 199.336 707.066 199.347C707.153 194.713 706.787 190.149 707.035 185.623C707.29 181.185 708.018 176.484 710.928 173.243C714.625 169.181 721.95 169.934 725.503 174.001L725.47 173.96C729.719 180.272 727.739 188.72 727.366 196.368C727.222 200.219 726.714 204.527 729.26 208.143C732.217 211.755 737.063 211.06 740.84 210.325C745.748 209.279 750.879 209.225 755.628 210.761C759.049 211.861 762.223 213.795 764.649 216.423C765.857 217.736 766.895 219.223 767.568 220.846C768.23 222.337 768.512 224.629 767.365 224.889C766.767 225.059 766.151 225.19 765.526 225.294C760.788 226.041 755.555 225.553 750.765 227.671C747.742 229.19 745.941 223.516 741.827 222.847C737.806 221.928 734.085 223.606 730.773 225.271C720.158 235.079 733.514 252.726 720.245 258.374C717.79 259.105 714.461 258.74 712.113 257.618C707.599 255.095 707.229 249.114 707.024 244.012L707.023 244.082C707.612 233.728 707.442 223.391 707.295 213.062C707.222 208.479 707.129 203.893 707.066 199.322C706.632 199.328 706.197 199.333 705.762 199.339C705.824 203.917 705.918 208.503 705.991 213.083C706.137 223.401 706.306 233.732 705.721 244.002L705.72 244.071C705.958 249.116 706.164 255.702 711.466 258.75C714.468 260.11 717.482 260.481 720.725 259.588C735.341 252.754 722.016 234.037 731.377 226.427C734.573 224.794 738.153 223.311 741.504 224.111C743.156 224.511 744.512 225.611 745.792 226.912C746.453 227.552 747.099 228.271 748.054 228.801C749.007 229.371 750.349 229.324 751.29 228.866C755.691 226.899 760.731 227.345 765.74 226.581C766.403 226.471 767.066 226.331 767.723 226.143C769.097 225.784 769.517 224.254 769.46 223.271C769.43 222.211 769.141 221.255 768.775 220.35C768.02 218.535 766.901 216.947 765.608 215.539C763.014 212.728 759.644 210.683 756.029 209.52C751.01 207.897 745.642 207.968 740.569 209.049C736.888 209.807 732.522 210.2 730.289 207.341C728.184 204.45 728.484 200.233 728.668 196.45C728.974 188.873 731.241 180.371 726.517 173.181L726.484 173.14C722.389 168.541 714.396 167.632 709.963 172.365C706.687 176.049 706.008 181.014 705.732 185.554C705.48 190.184 705.849 194.794 705.762 199.314ZM707.066 199.347L705.762 199.314L705.762 199.339L707.066 199.322L707.066 199.347Z" fill="black" mask="url(#path-16-inside-1_241_60)"/>
<path d="M776.73 216.104C776.73 216.104 774.665 176.876 782.668 171.245C791.182 166.553 797.859 173.709 797.823 183.676C797.742 205.667 798.424 228.208 797.548 250.214C797.391 254.164 795.432 257.272 791.958 258.903C789.271 260.165 786.22 260.26 783.467 259.168C775.354 255.949 776.73 227.803 776.73 227.803L776.73 216.104Z" fill="#080808"/>
<path d="M735.251 258.494L735.473 259.249C737.023 260.467 739.42 260.017 741.317 260.007C761.579 259.853 770.515 250.66 769.312 230.224C769.103 229.296 769.085 229.269 768.494 228.538C761.544 226.401 748.051 229.805 742.892 235.188C736.133 242.243 735.337 249.251 735.251 258.494Z" fill="#080808"/>
<path d="M743.222 251.199L743.382 251.739C744.505 252.61 746.242 252.286 747.616 252.279C762.299 252.159 768.78 245.577 767.917 230.956C767.766 230.292 767.753 230.273 767.325 229.75C762.289 228.225 752.51 230.666 748.769 234.52C743.867 239.571 743.288 244.585 743.222 251.199Z" fill="#82C4A0"/>
<path d="M493.862 203.738L494.553 203.904C495.721 205.249 495.42 207.432 495.495 209.143C496.252 227.429 488.352 235.897 469.863 235.714C469.017 235.567 468.992 235.552 468.306 235.051C466.071 228.875 468.546 216.552 473.174 211.66C479.241 205.251 485.527 204.223 493.862 203.738Z" fill="#080808"/>
<path d="M488.215 210.636L488.71 210.756C489.545 211.731 489.33 213.312 489.383 214.552C489.925 227.804 484.273 233.941 471.045 233.808C470.439 233.702 470.421 233.691 469.93 233.328C468.331 228.852 470.102 219.922 473.413 216.377C477.754 211.732 482.251 210.987 488.215 210.636Z" fill="#82C4A0"/>
<path d="M70.251 83.6286C59.3874 80.3173 52.3873 74.5329 47.0621 64.4784C41.6192 54.4101 40.471 42.5701 43.8773 31.643C54.86 -3.23545 107.524 -12.406 127.137 20.0347C132.818 18.2181 138.344 16.3946 144.367 15.2784C166.493 11.1782 191.217 12.913 211.697 22.6078C213.161 23.3007 216.416 25.3472 217.666 26.3492L217.924 26.2567C218.701 24.917 218.624 23.9405 218.697 22.4148C217.735 21.3454 216.867 20.3787 215.834 19.3732C221.332 21.9295 228.185 25.2315 232.182 29.9622C240.41 21.4251 251.115 17.3775 262.824 17.1668C264.666 17.1452 266.509 17.1536 268.351 17.1919C267.471 17.5581 265.442 18.2836 264.844 18.8417C272.787 18.3259 278.915 19.5814 285.988 23.5069C284.147 23.4681 282.077 23.2983 280.351 23.8451V24.2895C281.85 25.1621 283.118 25.5942 284.659 26.2936C304.341 35.2382 315.021 61.3088 303.74 80.588C303.499 81.0054 303.243 81.4173 302.987 81.8238C303.947 75.4882 303.612 72.6799 300.861 66.986C302.082 75.4276 301.461 82.6674 296.333 89.9766C293.508 94.0114 287.878 97.87 282.946 98.5871C284.885 106.056 286.116 113.821 287.764 121.369C285.599 120.466 284.565 119.832 282.547 118.593C283.35 124.058 285.161 140.281 280.788 144.287C280.207 143.672 280.174 142.861 279.948 141.929C279.291 142.334 277.792 147.417 276.754 149.275C298.233 151.609 322.738 169.331 316.059 193.545C320.09 193.052 331.562 192.076 330.799 198.75C329.421 210.805 326.867 224.177 324.067 236.067C329.082 236.488 334.52 237.087 338.054 241.181C343.384 247.36 339.718 257.861 331.508 258.984C321.542 260.347 310.645 258.638 300.61 258.195C269.079 256.015 237.373 252.298 205.74 253.73C201.333 253.929 193.988 254.789 189.812 256.139C182.177 258.718 177.448 264.459 168.719 263.338C162.625 262.556 158.667 258.746 153.298 256.865C142.173 252.967 128.576 253.372 116.96 253.441C91.8773 253.589 66.9476 256.196 41.9544 257.974C33.7327 258.563 14.2325 260.706 7.15764 258.332C5.22343 257.688 3.52939 256.473 2.29848 254.848C-1.12405 250.292 -0.874523 242.33 4.0629 238.932C7.42096 236.621 11.8327 236.161 15.7799 235.787L11.1078 213.383C10.2047 209.027 9.53039 204.847 8.74292 200.476C6.95734 190.568 21.1982 192.233 27.9581 193.076C21.7174 172.292 39.21 154.847 57.7702 149.405C62.3109 148.047 67.0333 147.396 71.7718 147.476C67.9009 140.986 67.1509 136.312 66.9279 128.865C65.0729 132.978 64.9794 133.734 64.9568 138.264C61.3221 126.069 60.7424 116.043 65.163 103.913C62.6776 104.419 60.4121 104.894 57.9478 105.528C61.833 99.5783 66.4038 90.2714 70.251 83.6286Z" fill="#080808"/>
<path d="M127.646 27.3621C143.264 21.1175 154.879 18.5488 171.876 18.9952C189.869 19.4682 204.332 22.9198 220.22 31.2581C219.335 29.7486 218.202 27.9787 217.666 26.3492L217.924 26.2567C218.701 24.917 218.624 23.9405 218.697 22.4148C224.745 28.9291 228.366 36.0823 229.934 44.8443C232.393 40.3002 236.699 34.3764 242.81 36.1059L242.876 36.6119C241.642 37.4599 240.404 38.3005 239.16 39.1327C250.123 40.905 258.763 47.3017 265.211 56.1583C265.632 56.7376 266.036 57.3277 266.424 57.9291C260.964 53.9957 259.755 53.3697 253.433 51.0663C270.825 68.9271 274.675 92.7184 281.845 115.56C278.23 111.89 274.873 107.303 271.311 104.107C276.192 115.471 277.649 125.78 273.52 137.737C274.114 132.29 273.411 130.688 270.458 125.851C271.078 134.016 271.078 141.84 266.159 148.957C252.344 149.412 240.366 154.464 232.096 165.927C228.317 166.564 224.209 171.662 218.6 173.912C219.149 171.388 219.464 170.289 220.394 167.883C207.747 177.625 195.209 181.738 179.268 183.861C177.547 184.09 170.971 183.8 170.188 184.241C171.087 186.069 173.917 186.79 175.923 187.553C166.635 188.315 156.798 184.118 149.401 178.648C146.241 176.311 141.648 171.972 138.493 170.133L138.169 169.948C140.772 172.499 143.025 176.084 145.348 179.083C141.642 176.941 138.229 174.326 135.194 171.306C133.768 169.873 128.689 164.043 127.484 163.358C127.694 164.118 131.738 171.241 132.588 172.981C126.603 168.376 121.233 164.124 115.39 159.29C110.591 155.319 102.453 150.686 98.4595 145.839C99.8332 145.745 104.125 145.885 104.894 145.088C100.731 143.006 98.9778 143.162 94.9184 139.663C89.54 135.027 86.7804 127.747 86.9635 120.74C87.0565 117.188 87.6442 116.584 87.3469 112.522L87.9227 111.999C87.6427 107.895 90.5209 102.186 92.3675 98.5974C90.0622 98.8868 87.5615 101.079 85.5894 102.497C86.2996 100.29 86.8296 95.9859 87.3371 93.4409C89.1236 84.4919 92.7347 79.7651 98.1529 72.9658C96.1749 73.9777 94.2535 75.2381 92.366 76.4223C95.6823 65.7044 110.632 52.9124 121.162 49.5189C119.3 49.1897 117.447 48.9776 115.572 48.7472C119.337 45.9744 122.128 44.771 126.345 42.7113C124.696 42.3072 121.426 41.8283 120.862 40.1412C122.367 38.676 126.526 38.7193 128.731 38.5667C124.677 37.6616 120.75 37.3541 116.608 37.2354C112.524 37.1183 114.582 37.2615 112.687 38.74C108.699 39.2617 105.605 39.7017 101.693 40.564C113.457 33.4369 121.809 29.4366 136.186 31.3777C133.115 29.5409 131.052 28.4527 127.646 27.3621Z" fill="#FCFBFA"/>
<path d="M135.668 65.3781C143.883 64.69 150.436 65.5607 154.018 74.054C156.376 71.7556 152.89 66.8516 151.317 64.9848C154.518 66.5583 156.976 67.8104 158.896 71.0035C164.308 80.0087 161.824 91.49 158.046 100.636C157.515 101.922 154.104 107.397 154.093 108.164C157.78 105.462 159.411 104.547 162.163 100.879C160.298 105.548 157.304 109.304 152.499 111.014C143.228 114.314 137.753 115.234 129.367 120.762C128.278 122.219 117.366 132.03 115.789 133.308C117.116 131.485 118.258 129.673 119.468 127.778L118.181 128.546C113.474 131.328 109.338 132.667 103.841 131.2C99.2601 130.005 95.3577 127.006 93.0224 122.887C89.9754 117.414 90.8042 112.256 92.3767 106.577C90.9076 108.397 89.4232 110.204 87.9226 111.999C87.6425 107.895 90.5207 102.186 92.3673 98.5974L93.2857 97.3537L93.5859 97.5826C93.0682 100.604 92.0012 102.88 91.4829 106.09C98.8699 95.9116 102.552 93.156 112.653 85.7947C110.93 86.4054 109.079 87.0251 107.386 87.6831C116.61 77.0365 127.449 68.212 142.476 69.342C144.388 69.4857 144.496 69.436 146.118 70.5749L147.147 70.4572C148.155 67.1646 137.544 66.044 135.668 65.3781Z" fill="#3A3A3A"/>
<path d="M129.367 120.762L130.08 119.419L129.957 119.088C124.535 118.305 119.157 116.903 116.558 111.441C112.557 103.196 117.508 90.0849 125.961 86.4522C142.401 79.3861 155.439 93.064 149.56 109.518C151.455 109.105 152.333 108.947 154.094 108.164C157.781 105.462 159.412 104.547 162.163 100.879C160.298 105.548 157.304 109.304 152.5 111.014C143.229 114.314 137.753 115.234 129.367 120.762Z" fill="#080808"/>
<path d="M132.653 89.6325C140.085 88.942 142.307 90.6489 146.575 96.4382C134.86 87.7717 124.499 96.2522 125.809 109.689C127.017 113.556 127.779 114.472 130.298 117.587C121.042 114.763 118.2 108.342 122.014 98.9055C123.914 94.2048 127.934 91.3182 132.653 89.6325Z" fill="#FCFBFA"/>
<path d="M136.994 95.6704C138.998 94.6945 141.414 95.5317 142.386 97.5387C143.357 99.5463 142.515 101.961 140.506 102.928C138.503 103.892 136.098 103.052 135.13 101.052C134.162 99.0507 134.995 96.6435 136.994 95.6704Z" fill="#FCFBFA"/>
<path d="M193.231 112.405C189.56 101.284 190.87 87.9809 197.166 77.8767C199.84 73.5864 203.754 72.512 208.387 71.6754C203.75 74.5412 203.355 75.4513 201.528 80.4413C208.615 74.4197 212.335 73.0898 221.659 75.403L226.018 77.1714C222.954 77.0739 220.682 76.9908 217.62 77.2295L216.194 78.1149C216.901 78.8807 221.867 79.2995 223.363 79.7282C231.336 82.0119 236.906 86.3533 242.717 92.1205C239.724 90.6346 236.372 88.9066 233.345 87.562C240.491 94.3707 242.537 98.2017 246.483 107.33C247.176 108.932 249.296 113.58 250.26 114.986C249.863 111.39 249.258 108.687 248.267 105.189C255.751 112.225 256.88 118.469 259.382 127.936C257.255 125.016 255.938 123.487 253.392 120.857C255.895 126.1 256.796 131.171 254.763 136.822C253.434 140.593 250.601 143.645 246.94 145.251C237.806 149.338 228.528 145.353 221.676 138.98C222.542 141.294 223.533 143.789 224.303 146.117C219.289 141.524 216.863 137.008 213.102 131.352C210.675 128.277 207.814 125.571 204.608 123.319C195.441 116.747 190.138 116.409 186.501 104.533C189.002 108.146 190.131 109.522 193.231 112.405Z" fill="#3A3A3A"/>
<path d="M193.231 112.405C193.638 114.318 196.103 116.293 198.013 116.507C198.579 115.859 198.164 110.604 198.416 109.088C199.694 101.42 204.803 93.6688 213.329 93.4532C235.939 92.8818 242.796 130.19 216.804 131.002C215.817 131.033 213.961 131.003 213.102 131.352C210.675 128.277 207.814 125.571 204.608 123.319C195.441 116.747 190.138 116.409 186.501 104.533C189.002 108.146 190.131 109.522 193.231 112.405Z" fill="#080808"/>
<path d="M212.555 98.1426C223.033 97.9079 229.455 108.975 227.465 118.522C226.398 123.639 223.209 127.301 217.917 128.112C216.824 128.279 215.491 128.6 214.518 127.95C214.95 126.943 215.536 126.909 216.697 126.285C219.391 124.545 221.351 121.873 222.201 118.78C223.217 115.022 222.706 111.015 220.78 107.632C216.595 100.339 209.875 99.9612 203.178 103.977C206.378 100.297 207.802 98.9139 212.555 98.1426Z" fill="#FCFBFA"/>
<path d="M208.866 104.068C210.176 103.434 211.727 103.565 212.913 104.408C214.098 105.252 214.731 106.674 214.563 108.119C214.396 109.565 213.454 110.805 212.106 111.354C210.112 112.166 207.833 111.249 206.958 109.281C206.083 107.313 206.927 105.006 208.866 104.068Z" fill="#FCFBFA"/>
<path d="M221.659 75.403L226.018 77.1714C222.954 77.0739 220.682 76.9907 217.62 77.2294C218.251 76.4351 220.589 75.7795 221.659 75.403Z" fill="#080808"/>
<path d="M163.883 121.469C171.925 121.417 198.017 122.19 190.23 137.102C187.577 142.182 175.572 140.711 173.418 144.388C172.89 145.291 172.754 146.371 173.042 147.377C175.103 154.845 188.817 155.66 194.667 153.624C197.727 152.559 202.308 150.337 203.873 147.18C204.468 145.98 203.744 145.795 203.271 144.78L204.39 144.417C208.044 144.887 210.704 149.704 207.771 152.983C206.493 152.747 207.676 151.599 206.509 150.512C197.74 158.225 191.154 159.339 179.78 157.798C166.934 155.559 154.9 157.989 144.704 150.338C141.691 148.078 139.484 144.863 136.367 142.269C134.92 142.019 136.074 142.768 134.345 143.205C131.598 140.361 133.665 136.801 137.28 136.521C138.396 136.435 139.325 139.656 139.951 140.705C140.824 142.598 142.492 143.781 143.83 145.287C148.316 150.339 161.871 154.551 166.986 148.241C167.912 147.075 168.304 145.573 168.065 144.103C167.165 138.41 153.414 137.394 153.18 130.151C152.944 122.852 157.93 121.748 163.883 121.469Z" fill="#080808"/>
<path d="M169.076 125.482C173.425 125.296 183.519 126.344 185.775 130.527C181.678 130.028 173.816 129.178 170.179 127.192C169.152 126.632 169.284 126.439 169.076 125.482Z" fill="#FCFBFA"/>
<path d="M169.198 106.687C175.707 106.885 179.339 108.252 184.708 111.878C180.529 111.349 177.063 110.983 172.866 110.738C169.128 110.564 161.647 111.489 157.696 111.886C161.64 108.133 163.8 107.033 169.198 106.687Z" fill="#DEDDDC"/>
<path d="M157.557 163.634C158.439 163.862 161.583 165.238 162.681 165.632C170.746 168.524 173.785 168.041 181.669 165.82L182.036 166.105L181.349 167.391C173.385 173.434 163.441 171.529 157.557 163.634Z" fill="#DEDDDC"/>
<path d="M271.016 92.3109C273.063 93.9981 274.086 100.358 274.374 103.007C273.6 101.837 271.764 94.5572 271.016 92.3109Z" fill="#DEDDDC"/>
<path d="M112.687 38.74C114.583 37.2615 112.524 37.1183 116.608 37.2354C120.75 37.354 124.677 37.6616 128.731 38.5667C126.526 38.7193 122.367 38.676 120.862 40.1412C121.426 41.8283 124.696 42.3072 126.345 42.7113C122.128 44.771 119.337 45.9743 115.572 48.7472C117.447 48.9775 119.3 49.1897 121.162 49.5189C110.632 52.9124 95.6824 65.7043 92.3661 76.4223C94.2536 75.2381 96.175 73.9777 98.153 72.9658C92.7348 79.7651 89.1237 84.4918 87.3372 93.4409C86.8297 95.9859 86.2997 100.29 85.5895 102.497C87.5616 101.079 90.0623 98.8868 92.3676 98.5974C90.521 102.186 87.6428 107.895 87.9228 111.999L87.347 112.522C87.6443 116.584 87.0566 117.188 86.9636 120.74C86.7805 127.747 89.5401 135.027 94.9185 139.663C98.9779 143.162 100.731 143.006 104.894 145.088C104.125 145.885 99.8333 145.745 98.4597 145.839C102.453 150.686 110.591 155.319 115.39 159.29C121.233 164.124 126.603 168.376 132.589 172.981C131.739 171.241 127.694 164.118 127.484 163.358C128.69 164.043 133.768 169.873 135.195 171.306C138.229 174.326 141.642 176.941 145.348 179.083C143.025 176.084 140.772 172.499 138.169 169.948L138.493 170.133C141.648 171.972 146.241 176.311 149.401 178.648C156.798 184.118 166.635 188.315 175.923 187.553C173.917 186.79 171.087 186.069 170.188 184.241C170.971 183.8 177.548 184.09 179.269 183.861C195.209 181.738 207.747 177.625 220.394 167.883C219.464 170.289 219.149 171.388 218.6 173.912C224.209 171.662 228.317 166.564 232.096 165.927C225.945 176.76 223.623 174.446 212.817 178.107C198.067 183.105 183.04 187.863 170.408 197.266C160.896 191.175 153.94 187.308 143.412 182.908C135.103 179.436 125.595 177.031 118.025 172.415C115.614 170.944 113.762 167.596 112.274 165.221C106.584 156.134 99.7078 151.943 89.7714 148.928C86.0851 144.909 83.9968 140.511 82.3727 135.414C82.2678 139.621 82.4888 141.731 83.0253 145.825C77.0715 136.425 76.7019 131.049 76.8407 120.39C75.5517 122.845 74.3051 125.787 73.1509 128.34C72.2325 117.364 74.1889 112.307 78.7016 102.613C76.3293 105.08 74.307 106.767 71.6853 108.975C74.4257 101.95 76.7393 96.5617 79.9867 89.822C76.4042 93.2938 74.2706 94.4065 70.0203 97.0072C76.8727 85.7227 83.3196 71.8038 90.4609 61.5657C89.6548 65.13 89.1951 69.4084 88.7133 73.0849C91.8538 63.7125 98.5084 56.1489 105.705 49.6272C101.16 50.893 97.7938 52.1963 93.4996 54.0606C98.0635 49.1577 101.119 45.7637 107.02 42.3244C108.881 41.2402 111.556 40.122 113.087 39.1731L112.687 38.74Z" fill="#DEDDDC"/>
<path d="M173.802 204.213C177.094 202.396 181.548 199.046 185.168 196.938C200 188.303 211.927 185.356 228.621 183.62C231.756 192.909 238.791 194.738 247.761 194.371C252.461 204.443 262.428 207.1 272.715 204.606C280.814 210.202 288.197 210.292 296.687 205.507C302.874 206.703 304.675 206.277 310.128 203.454C312.85 203.963 318.672 202.735 321.355 201.926C320.715 205.127 320.1 208.077 319.307 211.243C313.451 212.941 306.693 213.458 300.62 213.566C299.227 213.591 292.425 213.603 291.49 213.866C295.669 215.241 313.5 214.43 318.855 213.339C318.387 215.809 317.811 218.337 317.285 220.801C308.888 222.219 299.335 222.414 290.821 221.837C288.611 221.687 287.376 221.261 285.057 221.528C295.575 223.617 305.965 224.2 316.65 222.876C316.34 224.769 315.818 226.96 315.419 228.863C311.482 229.322 305.999 229.234 302.037 229.198L291.613 228.174L291.224 228.526L291.529 228.159L291.155 228.402C293.39 229.489 297.455 229.723 300.147 230.071C305.369 230.689 309.779 230.985 315.011 231.277C314.405 233.788 313.864 236.605 313.323 239.152C303.962 238.946 292.46 236.294 283.074 235.052C245.951 230.141 209.251 222.404 174.355 240.558C174.358 229.078 174.7 215.486 173.802 204.213Z" fill="#FCFBFA"/>
<path d="M241.688 210.541C222.087 211.432 203.578 212.147 185.355 220.609C184.639 220.942 183.243 221.737 182.522 221.576C184.023 220.225 187.172 218.505 188.984 217.489C203.856 209.16 222.828 207.476 239.496 208.975C238.414 209.171 238.453 208.973 237.906 209.617C239.555 210.394 240.018 210.031 241.688 210.541Z" fill="url(#paint0_linear_241_60)"/>
<path d="M185.458 229.02C202.87 218.422 227.263 217.725 246.884 220.363C249.957 220.614 252.23 221.123 255.232 221.752C249.686 221.456 244.134 221.284 238.581 221.24C216.745 221.467 206.037 222.057 185.458 229.02Z" fill="url(#paint1_linear_241_60)"/>
<path d="M246.884 220.363C249.957 220.614 252.23 221.123 255.232 221.752C249.686 221.456 244.134 221.284 238.581 221.24C240.253 220.069 244.491 221.579 246.884 220.363Z" fill="#080808"/>
<path d="M217.339 197.507C220.914 196.729 234.124 197.449 237.964 198.021C221.898 198.543 211.835 199.782 196.677 204.954C190.717 207.064 186.391 209.39 180.914 212.488C191.234 202.323 203.261 199.101 217.339 197.507Z" fill="url(#paint2_linear_241_60)"/>
<path d="M239.496 208.975C244.974 209.514 251.523 210.197 256.938 211.161C252.785 211.429 246.185 210.647 241.688 210.541C240.018 210.031 239.555 210.394 237.906 209.617C238.453 208.973 238.414 209.171 239.496 208.975Z" fill="#080808"/>
<path d="M116.656 183.617C137.047 185.949 150.838 192.332 166.959 205.273C167.099 218.007 167.608 227.139 167.225 240.218C133.103 221.343 89.923 231.119 53.259 235.704C45.6466 236.656 35.0547 238.611 27.6451 238.746C27.0717 236.245 26.5008 233.486 25.8231 231.032C31.3851 230.971 36.9372 230.532 42.4397 229.718C46.061 229.456 49.3034 228.757 52.7826 227.795C45.0236 228.535 39.6343 228.838 31.9225 228.893C29.7477 228.881 27.5728 228.851 25.3984 228.802C24.9362 226.841 24.573 224.85 24.1936 222.87C32.3635 224.071 49.0313 223.347 57.0251 221.471C53.7334 221.362 49.6233 221.774 46.2028 221.853C38.2794 222.034 31.3792 221.863 23.5744 220.742L22.0728 212.998C24.7384 213.69 26.4049 213.994 29.1379 214.015C31.9905 213.69 36.8304 214.441 39.4906 213.725L39.2677 213.318C33.0895 212.968 27.6185 212.636 21.6392 210.873C20.8173 207.587 20.2946 204.94 19.7168 201.598C25.1228 202.57 30.5026 202.861 35.727 203.63C41.2265 204.441 42.7359 207.986 49.2601 205.203C57.0191 210.442 66.7035 210.214 73.679 203.77C83.3531 207.029 93.6827 203.479 97.7022 193.735C106.038 194.806 113.314 191.583 116.656 183.617Z" fill="#FCFBFA"/>
<path d="M39.2675 213.318L49.3298 213.734C47.4941 214.436 31.7127 214.507 29.1377 214.016C31.9903 213.69 36.8303 214.441 39.4904 213.725L39.2675 213.318Z" fill="#3A3A3A"/>
<path d="M103.128 208.978C123.2 207.521 143.656 209.346 160.287 221.959C142.524 214.037 127.549 210.865 107.92 210.582C106.233 210.336 104.97 209.49 103.128 208.978Z" fill="url(#paint3_linear_241_60)"/>
<path d="M95.2403 220.634C118.408 217.777 133.79 217.389 155.326 227.937C151.01 226.89 146.561 225.277 142.312 224.447C127.325 221.516 110.13 220.394 94.8875 221.481L95.2403 220.634Z" fill="url(#paint4_linear_241_60)"/>
<path d="M106.793 197.794C121.509 195.286 141.987 198.609 154.48 207.46C156.402 208.841 158.226 210.353 159.939 211.984C147.646 205.386 137.58 201.452 123.616 199.423C121.05 199.05 117.067 198.398 114.526 198.426C112.518 198.65 104.941 198.669 103.217 198.113C104.768 197.588 105.221 197.626 106.793 197.794Z" fill="url(#paint5_linear_241_60)"/>
<path d="M114.526 198.426C112.518 198.65 104.941 198.669 103.217 198.113C104.768 197.588 105.221 197.626 106.793 197.794C109.601 198.301 112.321 198.011 114.526 198.426Z" fill="#DEDDDC"/>
<path d="M85.0681 211.159C91.0627 210.234 97.0859 209.506 103.128 208.978C104.97 209.49 106.233 210.336 107.92 210.582C104.229 210.574 100.574 210.586 96.8836 210.71C93.0525 210.839 88.8494 211.446 85.0681 211.159Z" fill="#080808"/>
<path d="M94.8875 221.481C93.6974 221.687 90.9049 222.118 89.9633 221.596L89.6907 221.775C91.1214 221.06 93.5729 220.861 95.2404 220.634L94.8875 221.481Z" fill="#3A3A3A"/>
<path d="M113.997 235.558C134.124 234.94 152.591 236.75 168.739 248.614C171.504 250.646 177.548 245.84 180.463 244.193C183.683 242.401 187.066 240.921 190.567 239.775C219.551 229.974 278.669 239.874 309.774 243.26C313.273 243.64 327.832 244.28 329.722 245.216C330.46 245.956 330.829 246.495 330.873 247.598C330.903 248.34 330.617 249.061 330.081 249.576C328.855 250.77 326.183 250.997 324.544 250.864C292.853 248.3 261.564 243.349 229.712 242.571C218.201 242.426 195.888 242.527 186.565 247.383C166.342 257.916 173.159 255.337 154.655 246.842C143.9 241.905 121.958 242.25 109.118 242.581C87.5309 243.351 65.9887 245.08 44.5548 247.763C38.8984 248.422 14.2152 252.581 10.6204 249.47C9.986 248.921 9.70793 248.196 9.64493 247.377C9.58292 246.631 9.85459 245.895 10.3866 245.368C10.8542 244.906 11.6677 244.396 12.3272 244.368C18.5502 244.102 24.5507 243.847 30.754 243.117C50.7055 240.769 70.6559 238.344 90.6675 236.579C98.6401 235.876 105.984 235.7 113.997 235.558Z" fill="#82C4A0"/>
<path d="M88.451 10.2779C100.764 9.02292 112.355 12.4218 117.567 24.4967C110.324 17.1018 101.505 12.5163 90.8912 13.3397C94.1537 14.3122 96.5693 15.082 99.729 16.3326C85.1289 14.896 70.4839 17.9602 61.4029 31.0499C57.1998 37.1085 56.7958 43.8703 58.2334 50.96C61.0343 58.314 62.4591 60.2265 68.7466 65.164C53.4919 59.9923 49.6731 45.7332 56.4872 31.5041C58.9726 26.3133 63.161 22.6825 67.5856 19.1448C63.6714 20.4579 60.896 21.5717 57.2648 23.4794C62.5404 17.1058 67.341 14.3314 74.8652 11.4719C72.425 13.7974 71.6243 14.9801 69.916 17.8947C75.5862 14.0204 81.5518 11.1432 88.451 10.2779Z" fill="#FCFBFA"/>
<path d="M72.5234 154.316C82.2934 153.178 93.1983 155.712 101.34 162.044C110.391 169.084 113.969 185.303 98.7643 187.235C95.7424 187.619 94.321 185.886 94.3549 182.909C95.4598 182.066 106.713 184.986 103.657 173.151C102.315 167.954 99.1122 165.274 94.6837 162.598C91.8675 161.153 88.8638 160.107 85.7592 159.492C71.7881 156.738 61.8182 161.324 50.6633 168.755C52.8692 165.797 54.5411 163.76 57.1633 161.198C48.6297 162.636 47.6719 163.957 40.374 167.424C50.7002 158.473 58.8165 155.237 72.5234 154.316Z" fill="#FCFBFA"/>
<path d="M264.656 155.798C265.867 155.726 267.08 155.694 268.293 155.7C281.658 155.856 293.04 159.109 302.628 168.862C296.235 165.315 293.587 164.067 286.45 162.333C288.837 164.685 290.407 166.759 292.278 169.476C279.667 160.755 268.12 157.941 253.134 162.242C246.607 164.616 235.892 172.411 240.886 180.978C243.099 184.773 246.768 183.045 250.138 183.567C250.67 186.001 248.849 187.861 246.434 187.898C232.904 188.101 232.19 174.229 239.751 165.972C246.516 158.585 255.018 156.433 264.656 155.798Z" fill="#FCFBFA"/>
<path d="M258.922 25.7965C261.03 25.5381 263.695 25.6887 265.86 25.7419C263.457 26.5904 262.464 26.205 259.812 27.7662C268.327 28.7155 272.085 29.254 279.311 34.1683L275.402 28.4547C283.783 32.8862 288.276 35.4976 294.025 43.4786C290.634 41.22 288.498 39.7952 284.797 38.1396C294.999 49.0681 301.211 67.9295 289.187 79.8148C285.899 82.66 284.364 83.0257 280.296 84.1164C283.138 81.9065 285.806 79.7996 287.637 76.627C301.299 52.942 274.284 26.486 250.33 30.3648C247.474 30.8274 244.964 31.8216 242.206 32.4831C248.24 28.7406 251.715 26.772 258.922 25.7965Z" fill="#FCFBFA"/>
<path d="M84.3691 173.966C89.4182 176.716 92.4795 183.085 90.882 188.733C90.091 191.56 88.205 193.955 85.6418 195.385C78.0472 199.622 70.0357 194.522 66.3011 187.611C65.3488 185.365 64.9216 183.418 64.3354 181.071C67.4548 185.991 70.5933 190.477 76.4393 192.4C83.6687 194.778 88.869 190.307 87.769 182.821C87.2458 179.261 86.0011 177.096 84.3691 173.966Z" fill="#FCFBFA"/>
<path d="M260.186 175.483L260.684 175.599C260.112 177.793 257.21 180.808 256.822 184.012C256.071 189.435 259.986 194.511 265.605 194.446C273.354 194.356 276.351 187.201 280.799 183.021C280.364 184.82 279.85 186.472 279.308 188.24C276.159 194.321 270.453 198.767 263.301 197.694C260.201 197.231 257.427 195.516 255.625 192.952C253.877 190.495 253.195 187.437 253.734 184.47C254.461 180.447 256.954 177.742 260.186 175.483Z" fill="#FCFBFA"/>
<path d="M47.9471 184.283C48.4043 185.319 48.6814 186.806 49.2056 187.983C52.6434 195.709 57.4233 197.502 65.2635 197.857L65.3531 198.282L64.0114 199.362C55.6018 204.267 45.8367 193.784 47.9471 184.283Z" fill="#FCFBFA"/>
<path d="M296.564 185.058C297.391 187.814 296.746 191.804 295.226 194.282C292.711 198.372 289.979 199.656 285.5 200.809C284.201 200.482 282.971 200.018 281.711 199.574C280.814 199.034 280.806 199.067 280.144 198.281C283.305 195.38 290.826 202.125 296.564 185.058Z" fill="#FCFBFA"/>
<path d="M306.26 191.01L306.639 191.493C307.18 195.485 306.329 198.169 302.79 200.315L302.52 200.067C304.424 196.769 305.315 194.614 306.26 191.01Z" fill="#FCFBFA"/>
<path d="M37.099 189.777C37.3559 190.21 37.3244 190.102 37.473 190.549C38.5548 193.803 40.1381 196.748 41.7662 199.754C37.3633 197.948 36.9627 193.903 37.099 189.777Z" fill="#FCFBFA"/>
<defs>
<linearGradient id="paint0_linear_241_60" x1="211.58" y1="215.155" x2="210.735" y2="210.527" gradientUnits="userSpaceOnUse">
<stop stop-color="#141212"/>
<stop offset="1" stop-color="#393637"/>
</linearGradient>
<linearGradient id="paint1_linear_241_60" x1="217.657" y1="224.053" x2="217.176" y2="219.869" gradientUnits="userSpaceOnUse">
<stop/>
<stop offset="1" stop-color="#2E2C2D"/>
</linearGradient>
<linearGradient id="paint2_linear_241_60" x1="208.838" y1="205.783" x2="206.828" y2="199.394" gradientUnits="userSpaceOnUse">
<stop/>
<stop offset="1" stop-color="#343132"/>
</linearGradient>
<linearGradient id="paint3_linear_241_60" x1="131.131" y1="215.5" x2="132.087" y2="210.551" gradientUnits="userSpaceOnUse">
<stop stop-color="#100F0F"/>
<stop offset="1" stop-color="#393636"/>
</linearGradient>
<linearGradient id="paint4_linear_241_60" x1="124.734" y1="223.833" x2="125.239" y2="219.668" gradientUnits="userSpaceOnUse">
<stop/>
<stop offset="1" stop-color="#393637"/>
</linearGradient>
<linearGradient id="paint5_linear_241_60" x1="132.287" y1="205.227" x2="134.17" y2="199.172" gradientUnits="userSpaceOnUse">
<stop/>
<stop offset="1" stop-color="#363434"/>
</linearGradient>
</defs>
</svg>
