<svg width="336" height="260" viewBox="0 0 336 260" fill="none" xmlns="http://www.w3.org/2000/svg">
<path d="M69.2798 82.4724C58.5664 79.2069 51.663 73.5024 46.4114 63.5869C41.0438 53.6579 39.9114 41.9815 43.2706 31.2055C54.1015 -3.19072 106.038 -12.2345 125.379 19.7577C130.982 17.9662 136.432 16.168 142.371 15.0672C164.191 11.0236 188.573 12.7345 208.771 22.2952C210.214 22.9786 213.424 24.9967 214.657 25.9849L214.911 25.8937C215.677 24.5725 215.601 23.6096 215.673 22.1049C214.725 21.0502 213.869 20.097 212.85 19.1054C218.272 21.6264 225.03 24.8827 228.972 29.548C237.087 21.1289 247.643 17.1372 259.191 16.9295C261.007 16.9081 262.824 16.9164 264.641 16.9543C263.773 17.3154 261.772 18.0308 261.182 18.5812C269.015 18.0725 275.059 19.3107 282.034 23.1819C280.218 23.1436 278.177 22.9762 276.475 23.5154V23.9537C277.953 24.8142 279.204 25.2404 280.723 25.9301C300.133 34.7511 310.665 60.4612 299.541 79.4738C299.303 79.8854 299.05 80.2917 298.798 80.6926C299.745 74.4445 299.415 71.675 296.701 66.0599C297.905 74.3848 297.293 81.5245 292.236 88.7326C289.45 92.7116 283.897 96.5169 279.034 97.224C280.946 104.589 282.16 112.247 283.786 119.691C281.65 118.8 280.631 118.176 278.641 116.954C279.432 122.343 281.218 138.342 276.906 142.292C276.333 141.685 276.301 140.886 276.077 139.967C275.43 140.366 273.951 145.379 272.928 147.211C294.109 149.513 318.276 166.99 311.689 190.869C315.664 190.383 326.978 189.421 326.226 196.003C324.867 207.891 322.348 221.078 319.586 232.803C324.532 233.218 329.895 233.809 333.38 237.847C338.637 243.94 335.021 254.296 326.925 255.404C317.096 256.747 306.35 255.063 296.454 254.625C265.359 252.475 234.092 248.81 202.896 250.222C198.549 250.419 191.306 251.266 187.188 252.598C179.659 255.141 174.994 260.803 166.386 259.697C160.377 258.926 156.473 255.169 151.178 253.313C140.208 249.469 126.799 249.869 115.343 249.937C90.6071 250.083 66.022 252.654 41.3743 254.408C33.2663 254.988 14.0358 257.102 7.05868 254.76C5.15121 254.125 3.4806 252.927 2.26671 251.324C-1.10851 246.831 -0.862432 238.98 4.00673 235.628C7.31836 233.349 11.6692 232.896 15.5618 232.527L10.9542 210.432C10.0636 206.138 9.39862 202.015 8.62204 197.704C6.86115 187.933 20.9051 189.575 27.5716 190.407C21.4172 169.91 38.6679 152.706 56.9715 147.34C61.4494 146 66.1065 145.358 70.7795 145.437C66.9622 139.037 66.2225 134.428 66.0026 127.084C64.1733 131.14 64.081 131.885 64.0587 136.353C60.4743 124.326 59.9025 114.438 64.2621 102.477C61.811 102.975 59.5769 103.443 57.1467 104.069C60.9781 98.2016 65.4857 89.0234 69.2798 82.4724Z" fill="#080808"/>
<path d="M125.881 26.9837C141.283 20.8255 152.738 18.2924 169.5 18.7326C187.244 19.199 201.507 22.6029 217.176 30.8259C216.303 29.3373 215.185 27.5919 214.657 25.9849L214.912 25.8936C215.677 24.5725 215.601 23.6095 215.674 22.1049C221.638 28.5291 225.209 35.5834 226.755 44.2243C229.18 39.743 233.426 33.9011 239.453 35.6067L239.518 36.1057C238.302 36.9419 237.08 37.7709 235.854 38.5917C246.665 40.3395 255.186 46.6477 261.545 55.3818C261.959 55.9531 262.358 56.5351 262.741 57.1282C257.357 53.2491 256.164 52.6318 249.929 50.3603C267.081 67.9741 270.877 91.4365 277.949 113.963C274.383 110.343 271.073 105.82 267.56 102.668C272.374 113.874 273.81 124.041 269.739 135.833C270.324 130.461 269.631 128.881 266.719 124.111C267.33 132.163 267.331 139.879 262.48 146.897C248.855 147.346 237.043 152.329 228.888 163.633C225.16 164.261 221.11 169.288 215.577 171.508C216.119 169.018 216.43 167.935 217.347 165.562C204.875 175.169 192.51 179.225 176.79 181.319C175.093 181.545 168.607 181.259 167.835 181.694C168.722 183.496 171.513 184.207 173.491 184.96C164.331 185.711 154.63 181.572 147.336 176.178C144.219 173.873 139.69 169.594 136.578 167.781L136.259 167.598C138.826 170.114 141.048 173.65 143.339 176.607C139.684 174.494 136.318 171.916 133.325 168.938C131.919 167.524 126.91 161.775 125.721 161.1C125.929 161.849 129.917 168.873 130.755 170.589C124.853 166.048 119.557 161.855 113.795 157.088C109.062 153.171 101.037 148.603 97.0985 143.822C98.4531 143.73 102.686 143.868 103.444 143.082C99.3384 141.028 97.6096 141.182 93.6063 137.732C88.3023 133.16 85.5808 125.981 85.7614 119.071C85.8531 115.568 86.4327 114.972 86.1395 110.967L86.7074 110.45C86.4312 106.403 89.2696 100.773 91.0907 97.2342C88.8172 97.5196 86.3511 99.6819 84.4062 101.08C85.1066 98.9033 85.6294 94.6588 86.1298 92.149C87.8917 83.3237 91.4528 78.6623 96.7961 71.957C94.8455 72.9549 92.9506 74.1979 91.0892 75.3657C94.3596 64.7959 109.102 52.1809 119.487 48.8343C117.651 48.5096 115.823 48.3004 113.975 48.0732C117.688 45.3387 120.44 44.152 124.599 42.1207C122.972 41.7223 119.747 41.25 119.191 39.5862C120.675 38.1413 124.777 38.184 126.952 38.0335C122.953 37.1409 119.081 36.8376 114.996 36.7206C110.968 36.6051 112.998 36.7463 111.129 38.2044C107.196 38.7188 104.145 39.1528 100.287 40.0031C111.889 32.9746 120.126 29.0296 134.303 30.9438C131.274 29.1324 129.24 28.0593 125.881 26.9837Z" fill="#FCFBFA"/>
<path d="M133.793 64.4742C141.894 63.7957 148.357 64.6543 151.889 73.0302C154.214 70.7636 150.776 65.9274 149.225 64.0864C152.382 65.6381 154.806 66.8729 156.699 70.0219C162.037 78.9026 159.587 90.2252 155.861 99.2447C155.337 100.512 151.974 105.913 151.963 106.669C155.599 104.004 157.208 103.101 159.921 99.4844C158.082 104.089 155.129 107.792 150.391 109.479C141.248 112.733 135.849 113.641 127.579 119.092C126.505 120.53 115.744 130.205 114.188 131.464C115.497 129.667 116.623 127.881 117.817 126.011L116.547 126.769C111.905 129.512 107.827 130.833 102.406 129.386C97.888 128.207 94.0396 125.25 91.7365 121.188C88.7317 115.791 89.549 110.704 91.0997 105.103C89.6509 106.898 88.1871 108.681 86.7072 110.45C86.431 106.403 89.2695 100.773 91.0905 97.2343L91.9962 96.0078L92.2923 96.2335C91.7817 99.2131 90.7294 101.458 90.2183 104.623C97.5031 94.5857 101.134 91.8681 111.096 84.6085C109.396 85.2109 107.572 85.8219 105.901 86.4709C114.998 75.9715 125.687 67.2689 140.506 68.3833C142.392 68.5251 142.499 68.476 144.098 69.5992L145.113 69.4832C146.107 66.2361 135.643 65.1309 133.793 64.4742Z" fill="#3A3A3A"/>
<path d="M127.579 119.092L128.282 117.767L128.16 117.442C122.813 116.669 117.509 115.287 114.947 109.901C111.001 101.769 115.883 88.8393 124.219 85.2569C140.433 78.2885 153.29 91.7772 147.492 108.004C149.361 107.597 150.227 107.441 151.963 106.669C155.599 104.004 157.208 103.101 159.921 99.4843C158.082 104.089 155.129 107.792 150.391 109.479C141.249 112.733 135.849 113.64 127.579 119.092Z" fill="#080808"/>
<path d="M130.819 88.3933C138.148 87.7124 140.34 89.3956 144.549 95.1049C132.996 86.5582 122.778 94.9215 124.07 108.173C125.261 111.986 126.012 112.889 128.497 115.961C119.368 113.176 116.566 106.844 120.327 97.5381C122.201 92.9024 126.165 90.0557 130.819 88.3933Z" fill="#FCFBFA"/>
<path d="M135.1 94.3477C137.077 93.3852 139.459 94.2108 140.417 96.1901C141.375 98.1699 140.545 100.551 138.563 101.505C136.588 102.456 134.217 101.628 133.262 99.6547C132.307 97.6812 133.129 95.3073 135.1 94.3477Z" fill="#FCFBFA"/>
<path d="M190.56 110.851C186.939 99.8833 188.231 86.7644 194.44 76.7999C197.077 72.569 200.937 71.5094 205.506 70.6843C200.933 73.5106 200.544 74.408 198.741 79.3291C205.73 73.3907 209.399 72.0793 218.594 74.3605L222.893 76.1044C219.871 76.0083 217.63 75.9262 214.611 76.1616L213.205 77.0348C213.902 77.79 218.799 78.2031 220.275 78.6258C228.138 80.8779 233.631 85.1593 239.361 90.8468C236.41 89.3815 233.104 87.6774 230.119 86.3513C237.166 93.0659 239.184 96.8439 243.075 105.846C243.759 107.426 245.849 112.01 246.8 113.396C246.408 109.85 245.812 107.184 244.834 103.735C252.215 110.673 253.329 116.831 255.795 126.168C253.699 123.288 252.399 121.779 249.889 119.186C252.357 124.357 253.245 129.358 251.241 134.93C249.93 138.649 247.136 141.659 243.525 143.243C234.519 147.274 225.368 143.343 218.611 137.059C219.465 139.34 220.443 141.801 221.202 144.097C216.257 139.568 213.865 135.114 210.156 129.536C207.762 126.503 204.941 123.835 201.779 121.614C192.739 115.133 187.509 114.799 183.923 103.088C186.389 106.651 187.502 108.008 190.56 110.851Z" fill="#3A3A3A"/>
<path d="M190.56 110.851C190.961 112.738 193.391 114.685 195.275 114.896C195.834 114.257 195.424 109.075 195.673 107.58C196.933 100.018 201.972 92.3738 210.38 92.1612C232.677 91.5977 239.439 128.39 213.806 129.19C212.833 129.221 211.003 129.191 210.156 129.536C207.762 126.504 204.941 123.835 201.779 121.614C192.739 115.133 187.509 114.799 183.923 103.088C186.389 106.651 187.502 108.008 190.56 110.851Z" fill="#080808"/>
<path d="M209.616 96.7857C219.949 96.5542 226.283 107.468 224.32 116.883C223.269 121.93 220.123 125.541 214.905 126.34C213.826 126.505 212.512 126.822 211.552 126.181C211.978 125.188 212.556 125.154 213.701 124.539C216.358 122.823 218.291 120.188 219.129 117.138C220.131 113.432 219.627 109.48 217.728 106.144C213.601 98.9514 206.973 98.5791 200.369 102.54C203.525 98.9102 204.93 97.5463 209.616 96.7857Z" fill="#FCFBFA"/>
<path d="M205.978 102.63C207.27 102.004 208.799 102.133 209.969 102.964C211.138 103.796 211.763 105.199 211.597 106.625C211.432 108.051 210.503 109.273 209.174 109.814C207.207 110.615 204.96 109.71 204.097 107.77C203.234 105.83 204.067 103.554 205.978 102.63Z" fill="#FCFBFA"/>
<path d="M218.594 74.3605L222.893 76.1044C219.871 76.0083 217.631 75.9263 214.612 76.1617C215.233 75.3783 217.539 74.7318 218.594 74.3605Z" fill="#080808"/>
<path d="M161.617 119.79C169.548 119.738 195.28 120.501 187.6 135.207C184.984 140.216 173.145 138.766 171.021 142.392C170.5 143.283 170.366 144.347 170.65 145.339C172.682 152.704 186.206 153.508 191.976 151.5C194.994 150.45 199.511 148.258 201.055 145.145C201.641 143.962 200.927 143.78 200.46 142.778L201.564 142.421C205.168 142.884 207.791 147.634 204.898 150.868C203.638 150.635 204.805 149.503 203.653 148.431C195.006 156.038 188.511 157.136 177.294 155.617C164.626 153.408 152.758 155.805 142.703 148.26C139.732 146.031 137.556 142.86 134.482 140.302C133.055 140.055 134.193 140.794 132.488 141.225C129.778 138.421 131.817 134.91 135.382 134.634C136.483 134.549 137.399 137.725 138.016 138.76C138.877 140.626 140.522 141.793 141.841 143.279C146.266 148.261 159.633 152.414 164.677 146.192C165.591 145.042 165.977 143.56 165.741 142.11C164.854 136.496 151.293 135.494 151.062 128.352C150.83 121.153 155.746 120.065 161.617 119.79Z" fill="#080808"/>
<path d="M166.739 123.748C171.027 123.564 180.982 124.598 183.207 128.723C179.166 128.23 171.413 127.392 167.826 125.433C166.814 124.881 166.944 124.691 166.739 123.748Z" fill="#FCFBFA"/>
<path d="M166.859 105.212C173.278 105.408 176.859 106.755 182.154 110.331C178.033 109.81 174.615 109.449 170.475 109.207C166.79 109.035 159.412 109.947 155.516 110.34C159.405 106.638 161.536 105.553 166.859 105.212Z" fill="#DEDDDC"/>
<path d="M155.378 161.371C156.249 161.596 159.349 162.953 160.432 163.342C168.385 166.194 171.382 165.718 179.158 163.527L179.519 163.808L178.841 165.076C170.988 171.036 161.181 169.158 155.378 161.371Z" fill="#DEDDDC"/>
<path d="M267.269 91.0347C269.288 92.6985 270.297 98.9703 270.581 101.583C269.817 100.429 268.007 93.2499 267.269 91.0347Z" fill="#DEDDDC"/>
<path d="M111.129 38.2044C112.998 36.7464 110.968 36.6051 114.996 36.7207C119.081 36.8376 122.953 37.141 126.952 38.0336C124.777 38.184 120.675 38.1413 119.191 39.5862C119.747 41.2501 122.972 41.7223 124.599 42.1208C120.44 44.152 117.688 45.3388 113.975 48.0733C115.823 48.3004 117.651 48.5096 119.487 48.8343C109.102 52.1809 94.3596 64.796 91.0892 75.3657C92.9505 74.198 94.8454 72.9549 96.7961 71.957C91.4527 78.6623 87.8916 83.3237 86.1297 92.1491C85.6293 94.6589 85.1066 98.9034 84.4062 101.08C86.351 99.6819 88.8172 97.5196 91.0906 97.2342C89.2696 100.773 86.4311 106.403 86.7073 110.45L86.1395 110.967C86.4326 114.972 85.8531 115.568 85.7613 119.071C85.5808 125.981 88.3022 133.16 93.6063 137.732C97.6095 141.182 99.3384 141.029 103.444 143.082C102.686 143.868 98.4531 143.73 97.0984 143.822C101.037 148.603 109.062 153.171 113.795 157.088C119.557 161.855 124.853 166.048 130.755 170.59C129.917 168.873 125.929 161.849 125.721 161.1C126.91 161.775 131.919 167.524 133.325 168.938C136.318 171.916 139.684 174.494 143.339 176.607C141.048 173.65 138.826 170.114 136.259 167.598L136.578 167.781C139.69 169.595 144.219 173.873 147.336 176.178C154.63 181.572 164.331 185.711 173.491 184.96C171.513 184.207 168.722 183.496 167.835 181.694C168.607 181.259 175.093 181.545 176.79 181.319C192.51 179.225 204.875 175.169 217.347 165.562C216.43 167.935 216.119 169.018 215.577 171.508C221.11 169.288 225.16 164.261 228.888 163.633C222.821 174.316 220.531 172.034 209.875 175.645C195.329 180.573 180.509 185.266 168.052 194.539C158.672 188.532 151.812 184.718 141.43 180.379C133.235 176.955 123.859 174.583 116.393 170.031C114.015 168.581 112.189 165.279 110.722 162.936C105.11 153.975 98.3293 149.843 88.5303 146.869C84.895 142.905 82.8356 138.568 81.2339 133.542C81.1305 137.691 81.3484 139.771 81.8775 143.809C76.006 134.539 75.6415 129.238 75.7784 118.726C74.5072 121.147 73.2778 124.048 72.1396 126.566C71.2339 115.742 73.1633 110.755 77.6135 101.194C75.2741 103.627 73.2798 105.291 70.6942 107.469C73.3967 100.541 75.6784 95.2268 78.8808 88.5802C75.3479 92.004 73.2438 93.1014 69.0522 95.666C75.81 84.5376 82.1677 70.8111 89.2103 60.7146C88.4153 64.2296 87.962 68.4488 87.4868 72.0745C90.5839 62.8317 97.1465 55.3727 104.243 48.9411C99.7616 50.1895 96.4418 51.4747 92.207 53.3133C96.7077 48.4781 99.7213 45.131 105.541 41.7393C107.376 40.6701 110.013 39.5673 111.524 38.6315L111.129 38.2044Z" fill="#DEDDDC"/>
<path d="M171.399 201.389C174.646 199.598 179.038 196.294 182.608 194.215C197.235 185.7 208.997 182.793 225.46 181.082C228.552 190.242 235.49 192.046 244.336 191.683C248.97 201.616 258.799 204.237 268.944 201.777C276.932 207.295 284.213 207.385 292.586 202.666C298.687 203.845 300.463 203.425 305.841 200.641C308.525 201.143 314.267 199.933 316.912 199.135C316.281 202.291 315.674 205.2 314.893 208.323C309.117 209.997 302.453 210.507 296.464 210.613C295.09 210.638 288.382 210.649 287.46 210.909C291.581 212.265 309.166 211.465 314.446 210.389C313.985 212.825 313.417 215.318 312.898 217.749C304.618 219.147 295.197 219.339 286.8 218.77C284.621 218.622 283.402 218.202 281.116 218.465C291.489 220.525 301.735 221.101 312.272 219.795C311.966 221.662 311.452 223.823 311.058 225.699C307.176 226.152 301.769 226.065 297.861 226.03L287.581 225.019L287.198 225.366L287.499 225.005L287.13 225.244C289.334 226.316 293.343 226.547 295.998 226.891C301.147 227.499 305.496 227.792 310.656 228.079C310.059 230.556 309.525 233.333 308.991 235.846C299.759 235.643 288.416 233.027 279.16 231.802C242.551 226.959 206.358 219.329 171.944 237.232C171.947 225.911 172.284 212.506 171.399 201.389Z" fill="#FCFBFA"/>
<path d="M238.347 207.63C219.017 208.509 200.763 209.214 182.793 217.559C182.086 217.887 180.71 218.672 179.999 218.513C181.479 217.181 184.584 215.484 186.372 214.482C201.038 206.268 219.747 204.608 236.185 206.086C235.118 206.279 235.156 206.084 234.617 206.719C236.243 207.485 236.699 207.127 238.347 207.63Z" fill="url(#paint0_linear_273_2)"/>
<path d="M182.895 225.853C200.065 215.402 224.121 214.714 243.471 217.316C246.501 217.564 248.743 218.066 251.703 218.687C246.234 218.394 240.759 218.225 235.282 218.181C213.748 218.406 203.188 218.986 182.895 225.853Z" fill="url(#paint1_linear_273_2)"/>
<path d="M243.471 217.316C246.501 217.564 248.743 218.066 251.703 218.687C246.234 218.394 240.759 218.225 235.282 218.181C236.931 217.026 241.11 218.515 243.471 217.316Z" fill="#080808"/>
<path d="M214.334 194.776C217.859 194.009 230.887 194.719 234.674 195.283C218.83 195.798 208.906 197.02 193.958 202.12C188.081 204.201 183.814 206.495 178.413 209.55C188.59 199.526 200.451 196.349 214.334 194.776Z" fill="url(#paint2_linear_273_2)"/>
<path d="M236.185 206.086C241.587 206.617 248.045 207.291 253.385 208.242C249.29 208.506 242.781 207.735 238.347 207.63C236.699 207.127 236.243 207.485 234.617 206.719C235.156 206.084 235.118 206.279 236.185 206.086Z" fill="#080808"/>
<path d="M115.043 181.079C135.152 183.378 148.752 189.672 164.651 202.435C164.789 214.993 165.291 223.999 164.913 236.897C131.263 218.283 88.6799 227.924 52.5228 232.446C45.0157 233.384 34.5702 235.312 27.263 235.445C26.6976 232.979 26.1346 230.258 25.4662 227.838C30.9513 227.778 36.4267 227.345 41.8531 226.542C45.4244 226.283 48.6219 225.594 52.053 224.645C44.4012 225.375 39.0865 225.674 31.4813 225.728C29.3365 225.717 27.1917 225.687 25.0474 225.638C24.5916 223.705 24.2334 221.741 23.8592 219.789C31.9162 220.973 48.3535 220.259 56.2368 218.409C52.9907 218.301 48.9374 218.708 45.5641 218.785C37.7503 218.964 30.9455 218.796 23.2486 217.691L21.7678 210.053C24.3965 210.736 26.0399 211.035 28.7351 211.057C31.5483 210.736 36.3214 211.476 38.9448 210.77L38.7249 210.368C32.6321 210.023 27.2368 209.697 21.3402 207.958C20.5296 204.717 20.0142 202.107 19.4443 198.811C24.7756 199.769 30.0811 200.056 35.2332 200.815C40.6566 201.614 42.1452 205.11 48.5792 202.366C56.2309 207.533 65.7814 207.308 72.6605 200.953C82.2008 204.167 92.3876 200.665 96.3515 191.056C104.572 192.112 111.748 188.934 115.043 181.079Z" fill="#FCFBFA"/>
<path d="M38.7248 210.368L48.6481 210.779C46.8377 211.471 31.2745 211.542 28.7351 211.057C31.5483 210.736 36.3213 211.476 38.9447 210.77L38.7248 210.368Z" fill="#3A3A3A"/>
<path d="M101.702 206.088C121.497 204.652 141.67 206.452 158.071 218.89C140.554 211.078 125.785 207.949 106.428 207.67C104.764 207.428 103.519 206.594 101.702 206.088Z" fill="url(#paint3_linear_273_2)"/>
<path d="M93.9237 217.584C116.771 214.766 131.941 214.384 153.178 224.785C148.923 223.753 144.534 222.163 140.344 221.344C125.565 218.453 108.608 217.347 93.5757 218.419L93.9237 217.584Z" fill="url(#paint4_linear_273_2)"/>
<path d="M105.316 195.059C119.83 192.586 140.024 195.863 152.344 204.592C154.239 205.953 156.038 207.445 157.728 209.053C145.605 202.546 135.678 198.667 121.907 196.666C119.377 196.298 115.448 195.655 112.942 195.683C110.962 195.903 103.49 195.922 101.79 195.374C103.319 194.857 103.766 194.894 105.316 195.059Z" fill="url(#paint5_linear_273_2)"/>
<path d="M112.942 195.683C110.962 195.903 103.49 195.922 101.79 195.374C103.319 194.857 103.766 194.894 105.316 195.059C108.086 195.559 110.768 195.273 112.942 195.683Z" fill="#DEDDDC"/>
<path d="M83.8921 208.239C89.8038 207.327 95.7437 206.61 101.702 206.089C103.519 206.594 104.764 207.428 106.428 207.67C102.788 207.663 99.1839 207.675 95.5442 207.797C91.7661 207.924 87.6211 208.523 83.8921 208.239Z" fill="#080808"/>
<path d="M93.5756 218.419C92.402 218.622 89.6481 219.047 88.7196 218.533L88.4507 218.709C89.8616 218.003 92.2792 217.807 93.9236 217.584L93.5756 218.419Z" fill="#3A3A3A"/>
<path d="M112.421 232.301C132.27 231.691 150.482 233.476 166.407 245.177C169.133 247.181 175.094 242.441 177.969 240.817C181.143 239.049 184.48 237.59 187.933 236.459C216.516 226.794 274.816 236.557 305.491 239.896C308.942 240.272 323.299 240.903 325.163 241.825C325.891 242.555 326.255 243.087 326.299 244.174C326.328 244.907 326.046 245.618 325.517 246.125C324.309 247.302 321.673 247.526 320.057 247.396C288.805 244.867 257.948 239.984 226.536 239.217C215.184 239.074 193.18 239.174 183.986 243.963C164.043 254.35 170.765 251.807 152.517 243.429C141.911 238.56 120.272 238.9 107.61 239.228C86.3209 239.987 65.0766 241.692 43.939 244.337C38.3607 244.987 14.0188 249.089 10.4737 246.021C9.84811 245.479 9.57388 244.764 9.51176 243.956C9.4506 243.221 9.71852 242.495 10.2432 241.975C10.7043 241.52 11.5066 241.017 12.157 240.989C18.2939 240.727 24.2114 240.475 30.329 239.756C50.0046 237.44 69.6792 235.049 89.4141 233.309C97.2765 232.615 104.519 232.442 112.421 232.301Z" fill="#82C4A0"/>
<path d="M87.2281 10.1359C99.3709 8.89822 110.802 12.2501 115.941 24.158C108.799 16.8654 100.101 12.3433 89.6345 13.1553C92.852 14.1144 95.2341 14.8735 98.3502 16.1068C83.9519 14.6901 69.5094 17.7119 60.554 30.6206C56.409 36.5954 56.0105 43.2638 57.4282 50.2555C60.1904 57.5078 61.5956 59.3939 67.7961 64.2631C52.7523 59.1629 48.9863 45.1009 55.7062 31.0686C58.1573 25.9495 62.2877 22.369 66.6511 18.8802C62.791 20.1751 60.0541 21.2735 56.4731 23.1548C61.6757 16.8693 66.4099 14.1333 73.8301 11.3134C71.4237 13.6067 70.634 14.773 68.9493 17.6474C74.5412 13.8266 80.4243 10.9892 87.2281 10.1359Z" fill="#FCFBFA"/>
<path d="M71.5208 152.183C81.1557 151.06 91.9099 153.559 99.9393 159.804C108.865 166.746 112.393 182.741 97.3989 184.647C94.4188 185.025 93.017 183.316 93.0505 180.38C94.1401 179.549 105.237 182.428 102.224 170.757C100.9 165.632 97.742 162.989 93.3747 160.35C90.5975 158.925 87.6353 157.893 84.5737 157.287C70.7957 154.571 60.9637 159.093 49.9629 166.422C52.1383 163.505 53.7871 161.496 56.3731 158.969C47.9574 160.388 47.0129 161.69 39.8159 165.109C49.9993 156.282 58.0034 153.091 71.5208 152.183Z" fill="#FCFBFA"/>
<path d="M260.997 153.644C262.191 153.573 263.387 153.541 264.584 153.547C277.763 153.701 288.989 156.909 298.444 166.527C292.139 163.029 289.528 161.799 282.49 160.088C284.844 162.408 286.392 164.453 288.236 167.133C275.801 158.533 264.413 155.757 249.634 159.999C243.197 162.34 232.63 170.027 237.556 178.476C239.738 182.218 243.356 180.514 246.679 181.029C247.204 183.43 245.408 185.264 243.026 185.3C229.684 185.501 228.98 171.82 236.436 163.677C243.107 156.392 251.492 154.27 260.997 153.644Z" fill="#FCFBFA"/>
<path d="M255.342 25.4399C257.421 25.185 260.049 25.3336 262.184 25.386C259.815 26.2227 258.835 25.8427 256.22 27.3823C264.618 28.3185 268.323 28.8495 275.449 33.6959L271.595 28.0613C279.859 32.4315 284.291 35.0068 289.96 42.8775C286.616 40.6502 284.509 39.245 280.859 37.6123C290.921 48.3897 297.046 66.9903 285.189 78.7113C281.946 81.5172 280.432 81.8778 276.421 82.9534C279.224 80.7741 281.854 78.6963 283.66 75.5676C297.133 52.21 270.492 26.1199 246.869 29.945C244.052 30.4012 241.577 31.3817 238.857 32.034C244.807 28.3433 248.235 26.4018 255.342 25.4399Z" fill="#FCFBFA"/>
<path d="M83.2027 171.561C88.1821 174.273 91.201 180.554 89.6255 186.124C88.8456 188.912 86.9856 191.273 84.4579 192.683C76.9682 196.862 69.0675 191.832 65.3846 185.017C64.4454 182.802 64.0241 180.883 63.446 178.567C66.5223 183.42 69.6174 187.844 75.3826 189.74C82.512 192.085 87.6404 187.676 86.5556 180.293C86.0397 176.783 84.8122 174.648 83.2027 171.561Z" fill="#FCFBFA"/>
<path d="M256.589 173.057L257.08 173.172C256.516 175.335 253.654 178.308 253.271 181.467C252.531 186.816 256.392 191.822 261.933 191.758C269.575 191.669 272.531 184.613 276.917 180.491C276.488 182.264 275.981 183.894 275.446 185.638C272.341 191.635 266.714 196.019 259.661 194.961C256.604 194.504 253.868 192.813 252.091 190.284C250.367 187.862 249.695 184.845 250.226 181.919C250.943 177.952 253.402 175.285 256.589 173.057Z" fill="#FCFBFA"/>
<path d="M47.2841 181.735C47.735 182.757 48.0083 184.223 48.5252 185.384C51.9155 193.003 56.6293 194.771 64.3611 195.121L64.4495 195.541L63.1264 196.606C54.833 201.443 45.2029 191.105 47.2841 181.735Z" fill="#FCFBFA"/>
<path d="M292.464 182.499C293.28 185.217 292.644 189.152 291.144 191.595C288.664 195.63 285.97 196.895 281.553 198.033C280.272 197.711 279.058 197.252 277.816 196.815C276.932 196.283 276.923 196.315 276.271 195.54C279.388 192.679 286.805 199.33 292.464 182.499Z" fill="#FCFBFA"/>
<path d="M302.026 188.369L302.4 188.845C302.934 192.783 302.094 195.429 298.604 197.545L298.337 197.301C300.216 194.048 301.094 191.924 302.026 188.369Z" fill="#FCFBFA"/>
<path d="M36.5862 187.154C36.8396 187.58 36.8085 187.474 36.9551 187.914C38.022 191.124 39.5834 194.028 41.1889 196.992C36.8469 195.211 36.4518 191.222 36.5862 187.154Z" fill="#FCFBFA"/>
<defs>
<linearGradient id="paint0_linear_273_2" x1="208.654" y1="212.18" x2="207.822" y2="207.616" gradientUnits="userSpaceOnUse">
<stop stop-color="#141212"/>
<stop offset="1" stop-color="#393637"/>
</linearGradient>
<linearGradient id="paint1_linear_273_2" x1="214.648" y1="220.955" x2="214.173" y2="216.829" gradientUnits="userSpaceOnUse">
<stop/>
<stop offset="1" stop-color="#2E2C2D"/>
</linearGradient>
<linearGradient id="paint2_linear_273_2" x1="205.951" y1="202.938" x2="203.968" y2="196.638" gradientUnits="userSpaceOnUse">
<stop/>
<stop offset="1" stop-color="#343132"/>
</linearGradient>
<linearGradient id="paint3_linear_273_2" x1="129.318" y1="212.521" x2="130.26" y2="207.64" gradientUnits="userSpaceOnUse">
<stop stop-color="#100F0F"/>
<stop offset="1" stop-color="#393636"/>
</linearGradient>
<linearGradient id="paint4_linear_273_2" x1="123.01" y1="220.739" x2="123.507" y2="216.631" gradientUnits="userSpaceOnUse">
<stop/>
<stop offset="1" stop-color="#393637"/>
</linearGradient>
<linearGradient id="paint5_linear_273_2" x1="130.458" y1="202.389" x2="132.315" y2="196.418" gradientUnits="userSpaceOnUse">
<stop/>
<stop offset="1" stop-color="#363434"/>
</linearGradient>
</defs>
</svg>
